<svg width="41" height="39" viewBox="0 0 41 39" fill="none" xmlns="http://www.w3.org/2000/svg">
<path d="M35.7473 16.153C35.7473 24.1357 26.1315 37.8009 20.6464 37.8009C15.1613 37.8009 5.54541 24.1357 5.54541 16.153C5.54541 8.17036 12.3065 1.69971 20.6464 1.69971C28.9862 1.69971 35.7473 8.171 35.7473 16.153Z" fill="black"/>
<path d="M20.6465 38.2499C19.221 38.2499 17.5513 37.4542 15.684 35.8851C14.0104 34.4789 12.2772 32.5225 10.6715 30.2282C7.23326 25.3157 5.09668 19.9223 5.09668 16.1532C5.09668 12.1686 6.71643 8.42441 9.65839 5.60877C12.5946 2.79826 16.4971 1.25098 20.6465 1.25098C24.7959 1.25098 28.6984 2.7989 31.6346 5.60877C34.5759 8.42441 36.1963 12.1692 36.1963 16.1532C36.1963 19.9223 34.0604 25.3151 30.6215 30.2282C29.0158 32.5225 27.2826 34.4782 25.609 35.8851C23.7417 37.4542 22.072 38.2499 20.6465 38.2499ZM20.6465 2.1487C12.567 2.1487 5.9944 8.43147 5.9944 16.1532C5.9944 19.7473 8.06814 24.9431 11.407 29.7132C14.6549 34.3538 18.2816 37.3522 20.6465 37.3522C23.0114 37.3522 26.6382 34.3538 29.886 29.7132C33.2242 24.9438 35.2986 19.7479 35.2986 16.1532C35.2986 8.43083 28.726 2.1487 20.6465 2.1487Z" fill="#CC0000"/>
<path d="M36.5211 10.9228C36.6128 10.6394 36.657 10.3354 36.6429 10.0206C36.5813 8.6054 35.3842 7.50825 33.969 7.56981C33.7862 7.5775 33.6092 7.60508 33.4393 7.64868C33.4393 7.64291 33.4393 7.63714 33.4393 7.63137C33.4393 6.53358 32.5493 5.64355 31.4515 5.64355C30.3537 5.64355 29.4637 6.53358 29.4637 7.63137C29.4637 8.72915 30.3537 9.61918 31.4515 9.61918C31.4906 9.61918 31.5291 9.6179 31.5682 9.61533C31.5579 9.66663 31.549 9.71921 31.5419 9.77179C29.413 10.4085 27.8613 12.381 27.8613 14.717C27.8613 15.1972 27.9279 15.6608 28.0511 16.102C27.5842 16.3034 27.1931 16.6464 26.9315 17.0767C26.5294 16.8997 26.085 16.801 25.617 16.801C23.8106 16.801 22.3467 18.2649 22.3467 20.0712C22.3467 21.8776 23.8106 23.3415 25.617 23.3415C27.1841 23.3415 28.4929 22.2392 28.8122 20.7676C28.8795 20.7734 28.9469 20.7766 29.0155 20.7766C29.9311 20.7766 30.7282 20.2713 31.1444 19.5249C31.7266 19.7525 32.3601 19.8789 33.0232 19.8789C35.8741 19.8789 38.1851 17.5679 38.1851 14.717C38.1851 13.2165 37.5438 11.8654 36.5217 10.9228H36.5211Z" fill="url(#paint0_linear_260_7340)"/>
<path d="M14.2664 15.5825C12.9853 15.5825 11.8169 16.0648 10.9314 16.8573C10.7814 16.6887 10.6063 16.5425 10.412 16.4245C11.0116 15.7974 11.3803 14.9477 11.3803 14.0115C11.3803 12.1417 9.91121 10.6143 8.06446 10.5213C8.25683 10.1558 8.36648 9.7403 8.36648 9.29849C8.36648 9.1991 8.36071 9.101 8.34981 9.00417C8.47998 9.02854 8.614 9.042 8.75122 9.042C9.95545 9.042 10.9314 8.06605 10.9314 6.86182C10.9314 5.65759 9.95545 4.68164 8.75122 4.68164C7.54699 4.68164 6.60246 5.62745 6.57232 6.80539C6.31006 6.71754 6.0292 6.66945 5.73744 6.66945C4.2857 6.66945 3.1084 7.84675 3.1084 9.29849C3.1084 10.5431 3.97342 11.5851 5.13468 11.8576C4.66915 12.4514 4.39086 13.1991 4.39086 14.0115C4.39086 15.6928 5.57842 17.0958 7.15969 17.4306C7.02888 17.7178 6.95578 18.0365 6.95578 18.3719C6.95578 19.6293 7.97469 20.6483 9.23214 20.6483C9.24369 20.6483 9.25459 20.6476 9.26549 20.6476C9.29947 23.3805 11.5245 25.5857 14.2658 25.5857C17.0071 25.5857 19.2674 23.3466 19.2674 20.5841C19.2674 17.8217 17.0282 15.5825 14.2658 15.5825H14.2664Z" fill="url(#paint1_linear_260_7340)"/>
<path d="M27.508 21.8664C27.2541 21.8664 27.0124 21.9171 26.7911 22.0075C26.366 21.0553 25.4119 20.3916 24.3019 20.3916C22.7969 20.3916 21.5767 21.6119 21.5767 23.1168C21.5767 24.6218 22.7969 25.8421 24.3019 25.8421C25.0265 25.8421 25.6844 25.5586 26.1724 25.0976C26.5148 25.4387 26.9867 25.6497 27.508 25.6497C28.5526 25.6497 29.3997 24.8026 29.3997 23.7581C29.3997 22.7135 28.5526 21.8664 27.508 21.8664Z" fill="#CF0722"/>
<path d="M28.1164 22.7706C27.6271 22.5904 27.1115 22.625 26.6723 22.8264C26.3741 22.2249 25.8547 21.7312 25.175 21.4804C23.763 20.9598 22.1959 21.6824 21.6752 23.0944C21.6412 23.1861 21.613 23.2791 21.5893 23.3721C21.5502 22.9752 21.5976 22.5628 21.7451 22.1634C22.2658 20.7514 23.8329 20.0287 25.2449 20.5494C25.9246 20.8001 26.444 21.2939 26.7422 21.8953C27.1814 21.694 27.697 21.6594 28.1862 21.8395C29.1487 22.1948 29.6495 23.2502 29.3244 24.2166C29.2109 23.5766 28.7704 23.0117 28.1164 22.7706Z" fill="#FED80F"/>
<path d="M14.4049 25.2008C15.1896 25.2008 15.8258 24.5646 15.8258 23.7799C15.8258 22.9951 15.1896 22.3589 14.4049 22.3589C13.6201 22.3589 12.9839 22.9951 12.9839 23.7799C12.9839 24.5646 13.6201 25.2008 14.4049 25.2008Z" fill="#D51C0D"/>
<path d="M14.4048 22.3154C13.6891 22.3154 13.0973 22.8444 12.9985 23.5331C13.2473 23.3196 13.5705 23.1901 13.9238 23.1901C14.7087 23.1901 15.3448 23.8262 15.3448 24.611C15.3448 24.6803 15.3397 24.7483 15.33 24.8143C15.6333 24.554 15.8257 24.1679 15.8257 23.7364C15.8257 22.9515 15.1896 22.3154 14.4048 22.3154Z" fill="#FFBD04"/>
<path d="M2.88479 6.73296C3.14827 6.73296 3.36186 6.51936 3.36186 6.25588C3.36186 5.9924 3.14827 5.77881 2.88479 5.77881C2.62131 5.77881 2.40771 5.9924 2.40771 6.25588C2.40771 6.51936 2.62131 6.73296 2.88479 6.73296Z" fill="url(#paint2_linear_260_7340)"/>
<path d="M2.62507 5.8383C2.42116 5.96527 2.34677 6.22112 2.44039 6.43465C2.4731 6.32948 2.54235 6.23522 2.64302 6.17302C2.86681 6.03388 3.16049 6.10185 3.30028 6.32564C3.31247 6.34552 3.32337 6.36539 3.33234 6.38591C3.37274 6.25767 3.35863 6.11403 3.28233 5.99092C3.14318 5.76713 2.84886 5.69916 2.62507 5.8383Z" fill="#FFBD04"/>
<path d="M33.4649 4.87358C33.7284 4.87358 33.9419 4.65999 33.9419 4.39651C33.9419 4.13303 33.7284 3.91943 33.4649 3.91943C33.2014 3.91943 32.9878 4.13303 32.9878 4.39651C32.9878 4.65999 33.2014 4.87358 33.4649 4.87358Z" fill="url(#paint3_linear_260_7340)"/>
<path d="M33.683 4.11946C33.5124 4.07201 33.3387 4.15345 33.272 4.30349C33.3444 4.27143 33.4297 4.2631 33.5137 4.28618C33.7003 4.33812 33.8119 4.52472 33.7625 4.70298C33.758 4.71901 33.7529 4.73376 33.7465 4.74851C33.835 4.70939 33.9049 4.63437 33.9324 4.53626C33.9818 4.358 33.8702 4.1714 33.6836 4.11946H33.683Z" fill="#FFBD04"/>
<path d="M17.8317 15.7572C17.8317 15.7572 18.128 22.1374 13.2476 25.4647C13.2476 25.4647 22.9231 24.56 25.8727 25.1371C25.8727 25.1371 22.9898 22.3798 22.219 16.0957C22.219 16.0957 20.2421 12.5324 17.8311 15.7572H17.8317Z" fill="black"/>
<path d="M31.3554 9.04206C31.3195 9.04206 31.2843 9.04398 31.2484 9.04462C31.3804 8.5637 31.4516 8.05777 31.4516 7.53517C31.4516 4.40083 28.9111 1.86028 25.7767 1.86028C23.301 1.86028 21.1958 3.44604 20.4205 5.657C20.3763 3.02155 18.2275 0.898438 15.5812 0.898438C12.9348 0.898438 10.7399 3.06579 10.7399 5.73972C10.7399 5.99621 10.7604 6.24758 10.7983 6.49317C10.6835 6.48355 10.5681 6.47714 10.4513 6.47714C8.20255 6.47714 6.37954 8.30015 6.37954 10.5489C6.37954 11.0574 6.4738 11.5435 6.64373 11.9924C6.31157 12.6022 6.12305 13.3011 6.12305 14.0436C6.12305 16.4162 8.04674 18.3399 10.4193 18.3399C10.6758 18.3399 10.9271 18.3162 11.1714 18.2732C11.5709 19.859 13.006 21.0331 14.7155 21.0331C16.6123 21.0331 18.1711 19.5884 18.3526 17.7397C19.1586 17.2459 19.7588 16.4489 19.9928 15.5063C20.3545 15.7076 20.7546 15.85 21.1785 15.9186C21.5421 17.3306 22.7283 18.4123 24.1961 18.622C24.8508 19.2415 25.7338 19.6217 26.7059 19.6217C27.9544 19.6217 29.0553 18.9959 29.7152 18.0411C30.225 18.2334 30.7777 18.3392 31.3548 18.3392C33.9223 18.3392 36.0037 16.2578 36.0037 13.6903C36.0037 11.1228 33.9223 9.04141 31.3548 9.04141L31.3554 9.04206Z" fill="#F9BD00"/>
<path d="M8.28593 13.9955C8.28593 11.9462 9.69471 10.2264 11.5972 9.75059C11.2561 9.66531 10.8996 9.61914 10.5322 9.61914C8.11536 9.61914 6.15576 11.5787 6.15576 13.9955C6.15576 16.4123 8.11536 18.3719 10.5322 18.3719C10.8996 18.3719 11.2561 18.3258 11.5972 18.2405C9.69535 17.7647 8.28593 16.0449 8.28593 13.9955Z" fill="#FF4715"/>
<path d="M31.227 9.07411C33.2277 9.07411 34.1126 11.3332 34.1126 12.7118C34.1126 14.7124 32.4903 16.3348 30.4896 16.3348C29.7266 16.3348 29.0193 16.0981 28.4351 15.6954C28.2697 16.5348 27.5304 17.1683 26.6422 17.1683C26.2684 17.1683 25.9209 17.0555 25.631 16.8631C25.3316 17.2075 24.8904 17.4248 24.3979 17.4248C23.4951 17.4248 22.7628 16.6926 22.7628 15.7897C22.7628 15.7134 22.7686 15.6377 22.7788 15.564C22.7628 15.564 22.7468 15.5653 22.7307 15.5653C22.1466 15.5653 21.6342 15.2588 21.345 14.7977C21.061 15.0363 20.6942 15.1805 20.2941 15.1805C19.7869 15.1805 19.3329 14.9491 19.0334 14.5868C18.952 15.6025 18.3563 16.4733 17.506 16.9375C17.1379 18.1475 16.0139 19.0279 14.684 19.0279C13.2361 19.0279 12.0331 17.9846 11.783 16.6086C11.4682 16.6804 11.1412 16.7195 10.8045 16.7195C8.43581 16.7195 6.50571 14.8439 6.41658 12.497C6.22741 12.9811 6.12354 13.5076 6.12354 14.0584C6.12354 16.4309 8.04722 18.3546 10.4198 18.3546C10.6763 18.3546 10.9276 18.3309 11.1719 18.2879C11.5714 19.8737 13.0065 21.0478 14.716 21.0478C16.6128 21.0478 18.1716 19.6031 18.3531 17.7544C19.1591 17.2607 19.7593 16.4636 19.9933 15.521C20.355 15.7224 20.7551 15.8647 21.179 15.9333C21.5425 17.3453 22.7288 18.4271 24.1966 18.6368C24.8513 19.2562 25.7343 19.6364 26.7064 19.6364C27.9548 19.6364 29.0558 19.0106 29.7157 18.0558C30.2254 18.2482 30.7782 18.354 31.3553 18.354C33.9228 18.354 36.0042 16.2726 36.0042 13.7051C36.0042 11.1376 33.9228 9.05615 31.3553 9.05615C31.3194 9.05615 31.2841 9.07282 31.2482 9.07346H31.227V9.07411Z" fill="#CC0000"/>
<path d="M15.4847 0.866455C12.5671 0.930578 10.8999 3.4955 10.7075 5.22682C10.6601 5.65644 10.6434 6.0508 10.7717 6.44515C10.6222 6.42912 10.6049 6.44515 10.451 6.44515C8.18429 6.44515 6.34717 8.23932 6.34717 10.4528C6.34717 10.9857 6.45425 11.4936 6.6479 11.9584C6.68189 11.6968 6.948 9.92896 8.01437 8.62534C8.93325 7.5019 10.7928 7.55769 11.5123 7.6263C11.3238 7.1582 11.2205 6.65227 11.2205 6.12454C11.2205 3.71608 13.359 1.76418 15.9977 1.76418C17.6444 1.76418 19.0961 2.52467 19.9547 3.68145C19.2731 2.01939 17.5289 0.821569 15.4847 0.866455Z" fill="#C70004"/>
<path d="M31.3555 9.04177C31.3196 9.04177 31.2843 9.0437 31.2484 9.04434C31.3805 8.56342 31.4516 8.05749 31.4516 7.53488C31.4516 4.40055 28.9111 1.86 25.7768 1.86C24.8457 1.86 23.9666 2.08443 23.1913 2.48199C23.6017 2.34926 24.0397 2.2768 24.4943 2.2768C26.8316 2.2768 28.7264 4.17163 28.7264 6.50892C28.7264 7.81638 28.1333 8.9847 27.2016 9.76123C26.7938 8.14982 25.3343 6.95778 23.5966 6.95778C22.1519 6.95778 20.9002 7.7824 20.2846 8.98535C20.0262 7.32841 18.5931 6.06006 16.8637 6.06006C15.4446 6.06006 14.2263 6.91353 13.6909 8.13507C13.1407 7.39766 12.6001 7.431 11.6793 7.20401C11.6736 7.10654 11.6697 7.00843 11.6697 6.90968C11.6697 4.24473 13.83 2.08443 16.495 2.08443C17.4895 2.08443 18.4129 2.38517 19.1811 2.90072C18.3096 2.03955 17.1118 1.50732 15.7896 1.50732C13.1247 1.50732 11.0926 3.66763 11.0926 6.33258C11.0926 6.59356 11.1138 6.84941 11.1542 7.09885C11.049 7.09051 10.4623 7.05396 10.3552 7.05396C8.12435 7.05396 7.07337 8.77759 6.63605 10.9655C6.57193 11.2861 6.60912 11.867 6.63605 12.0556C6.91627 10.0979 8.6726 8.24024 10.7079 8.24024C11.8941 8.24024 12.7034 8.17483 13.4421 8.98919C13.4151 9.16297 13.401 9.34123 13.401 9.5227C13.401 10.8141 14.1083 11.9388 15.1561 12.5346C14.9592 13.6266 14.0532 14.4723 12.9316 14.5769C12.9868 14.398 13.0163 14.2082 13.0163 14.0113C13.0163 12.9488 12.1551 12.0876 11.0926 12.0876C10.0301 12.0876 9.16891 12.9488 9.16891 14.0113C9.16891 15.0738 10.0301 15.935 11.0926 15.935C11.4754 15.935 11.8319 15.8228 12.132 15.6298C12.5014 15.8241 12.922 15.935 13.369 15.935C14.8387 15.935 16.0301 14.7436 16.0301 13.2739C16.0301 13.1386 16.0192 13.0065 15.9993 12.8763C16.2757 12.9475 16.5649 12.9853 16.8637 12.9853C17.5998 12.9853 18.2821 12.7551 18.8431 12.3633C19.3382 12.6448 19.7127 13.0834 19.9211 13.5939C19.9243 13.5701 19.9287 13.5464 19.9332 13.5233C20.0429 13.2572 20.2 13.0052 20.4071 12.7814C20.4308 12.7558 20.4552 12.7308 20.4802 12.7064C21.1439 13.724 22.2917 14.3973 23.5966 14.3973C24.091 14.3973 24.5629 14.2999 24.9945 14.1248C25.7261 14.7949 26.804 15.0264 27.7845 14.632C28.0749 14.9225 28.4757 15.1027 28.9188 15.1027C29.8043 15.1027 30.5219 14.3851 30.5219 13.4996C30.5219 13.3675 30.5058 13.2393 30.4757 13.1161C30.6879 12.9937 30.9329 12.9225 31.1952 12.9225C31.6857 12.9225 32.1192 13.1674 32.3795 13.5419C32.3808 13.5176 32.3814 13.4926 32.3814 13.4675C32.3814 12.6705 31.7357 12.0248 30.9387 12.0248C30.595 12.0248 30.2795 12.1453 30.0313 12.346C29.7428 12.0677 29.351 11.8965 28.9188 11.8965C28.0332 11.8965 27.3157 12.6141 27.3157 13.4996C27.3157 13.524 27.3164 13.5477 27.3176 13.5714C26.9611 13.5253 26.6193 13.4028 26.316 13.2143C26.9271 12.5596 27.3042 11.6843 27.3151 10.7212C28.1025 10.0543 29.1214 9.65222 30.2339 9.65222C32.7309 9.65222 34.7546 11.6759 34.7546 14.1729C34.7546 15.9908 33.6812 17.5567 32.1339 18.2748C34.3308 17.9042 36.005 15.994 36.005 13.692C36.005 11.1245 33.9236 9.04306 31.3561 9.04306L31.3555 9.04177Z" fill="#FBFFF1"/>
<path d="M11.1244 7.05394C11.1494 7.07638 11.1808 7.10011 11.2174 7.12447L11.6149 7.20398C12.5357 7.43162 13.0757 7.39763 13.6265 8.13505C13.8067 7.72338 14.0651 7.35403 14.3818 7.04432C14.0555 6.81027 13.4976 5.76442 13.2847 5.44124C12.5274 4.29473 12.6916 2.73205 13.5611 1.28223C11.0603 2.17995 9.77781 5.83496 11.1244 7.0533V7.05394Z" fill="#FF4715"/>
<path d="M15.581 0.898364C18.2273 0.898364 20.3761 3.02147 20.4203 5.65693C21.1956 3.44597 23.3007 1.86021 25.7765 1.86021C28.9108 1.86021 31.4514 4.40076 31.4514 7.53509C31.4514 8.05769 31.3802 8.56427 31.2481 9.04455C31.284 9.04391 31.3193 9.04198 31.3552 9.04198C33.9227 9.04198 36.0041 11.1234 36.0041 13.6909C36.0041 16.2584 33.9227 18.3398 31.3552 18.3398C30.7781 18.3398 30.2254 18.234 29.7156 18.0416C29.0564 18.9964 27.9548 19.6223 26.7063 19.6223C25.7342 19.6223 24.8512 19.242 24.1965 18.6226C22.7287 18.4123 21.5425 17.3312 21.1789 15.9192C20.7544 15.8506 20.3549 15.7082 19.9933 15.5069C19.7586 16.4488 19.159 17.2465 18.353 17.7403C18.1715 19.5889 16.6127 21.0336 14.7159 21.0336C13.0064 21.0336 11.5707 19.8595 11.1719 18.2738C10.9276 18.3167 10.6768 18.3405 10.4197 18.3405C8.04715 18.3405 6.12346 16.4168 6.12346 14.0442C6.12346 13.301 6.31198 12.6021 6.64414 11.9929C6.47421 11.5441 6.37995 11.058 6.37995 10.5495C6.37995 8.30072 8.20297 6.4777 10.4518 6.4777C10.5691 6.4777 10.6845 6.48348 10.7987 6.49373C10.7602 6.24814 10.7403 5.99678 10.7403 5.74029C10.7403 3.06636 12.9077 0.899005 15.5816 0.899005M15.581 0.000641856C12.4575 0.000641856 9.90928 2.50849 9.84323 5.61653C7.38861 5.91727 5.48159 8.01473 5.48159 10.5489C5.48159 11.0176 5.54699 11.4793 5.67588 11.9256C5.38028 12.5886 5.2251 13.3132 5.2251 14.0436C5.2251 16.9073 7.55533 19.2375 10.4191 19.2375C10.4652 19.2375 10.5114 19.2375 10.5576 19.2356C11.2783 20.8547 12.8923 21.9307 14.7153 21.9307C15.8528 21.9307 16.9416 21.5088 17.7817 20.7431C18.5075 20.0814 18.9955 19.2119 19.1821 18.259C19.7297 17.8454 20.1786 17.31 20.4928 16.7034C20.7499 17.3446 21.1513 17.9198 21.6726 18.3885C22.2754 18.9317 23.0032 19.2991 23.7906 19.462C24.6088 20.1455 25.6335 20.5194 26.7063 20.5194C27.9746 20.5194 29.1757 19.9897 30.0304 19.0766C30.4626 19.183 30.9057 19.2369 31.3552 19.2369C34.4139 19.2369 36.9018 16.7489 36.9018 13.6903C36.9018 10.9586 34.9166 8.68161 32.3126 8.22634C32.3369 7.99678 32.3491 7.76593 32.3491 7.53445C32.3491 3.91022 29.4007 0.961845 25.7765 0.961845C23.8111 0.961845 21.9926 1.83969 20.7679 3.27861C20.4832 2.67906 20.0927 2.1276 19.6066 1.64924C18.5268 0.585443 17.0975 0 15.5816 0L15.581 0.000641856Z" fill="black"/>
<path d="M19.9735 14.4282C19.9735 16.2878 19.0296 16.7642 17.9876 16.8803C16.7097 17.022 15.5478 16.1974 15.2297 14.9899C15.2252 15.1143 15.2297 15.2407 15.2438 15.3676C15.3996 16.7732 16.7084 17.9184 18.114 17.7626C19.3381 17.6267 21.4483 16.3519 20.5506 15.8389L19.9735 14.4282Z" fill="black"/>
<path d="M24.7775 17.2806C24.0626 17.3864 23.3841 17.0523 23.0167 16.4816C24.194 16.0347 25.0796 15.0485 25.4123 13.8564C24.8352 14.9722 23.7362 15.7949 22.3954 15.9616C21.8266 16.0328 21.2706 15.9783 20.7557 15.8212L20.6948 16.6323C21.1424 16.7394 21.6169 16.7696 22.101 16.7093C22.3037 16.6843 22.5012 16.6439 22.6923 16.59L22.6653 16.5996C23.0154 17.2312 23.731 17.6115 24.4871 17.4999C24.857 17.4454 25.1834 17.2806 25.438 17.044C25.2411 17.1626 25.0186 17.2453 24.7769 17.2813L24.7775 17.2806Z" fill="black"/>
<path d="M16.854 17.49C16.7585 18.4345 15.6261 19.0937 14.325 18.9622C13.8659 18.9154 13.4472 18.7763 13.1016 18.5743C13.4741 19.0014 14.0923 19.3149 14.8162 19.3887C16.0589 19.5143 17.1407 18.8853 17.2317 17.9824C17.2753 17.5503 17.0836 17.1341 16.7361 16.8032C16.8354 17.0206 16.8784 17.2527 16.8547 17.49H16.854Z" fill="black"/>
<path d="M9.84008 22.4599C10.5484 22.4599 11.1225 21.8858 11.1225 21.1775C11.1225 20.4692 10.5484 19.895 9.84008 19.895C9.13179 19.895 8.55762 20.4692 8.55762 21.1775C8.55762 21.8858 9.13179 22.4599 9.84008 22.4599Z" fill="#972F03"/>
<path d="M34.7359 34.3064C34.7359 34.3064 26.5282 31.8697 20.6609 31.8697C14.7937 31.8697 6.58594 34.3064 6.58594 34.3064V25.9704C6.58594 25.9704 13.1906 23.5337 20.6609 23.5337C28.1313 23.5337 34.7359 25.9704 34.7359 25.9704V34.3064Z" fill="#CC0000"/>
<path d="M6.58607 34.7553C6.49052 34.7553 6.39626 34.7246 6.31739 34.6662C6.20389 34.5816 6.13721 34.4482 6.13721 34.3065V25.9705C6.13721 25.7826 6.25455 25.6146 6.43089 25.5492C6.49758 25.5248 13.1971 23.085 20.6611 23.085C28.125 23.085 34.8245 25.5248 34.8912 25.5492C35.0676 25.614 35.1849 25.7826 35.1849 25.9705V34.3065C35.1849 34.4482 35.1182 34.5816 35.0047 34.6662C34.8912 34.7509 34.7444 34.7771 34.6085 34.7367C34.527 34.7124 26.3943 32.3187 20.6611 32.3187C14.9278 32.3187 6.79511 34.7124 6.71367 34.7367C6.67199 34.7489 6.62839 34.7553 6.58607 34.7553ZM20.6611 31.4209C25.6954 31.4209 32.3032 33.1561 34.2872 33.7108V26.2892C32.9323 25.8294 27.0843 23.9827 20.6611 23.9827C14.2379 23.9827 8.38985 25.8301 7.03493 26.2892V33.7108C9.01889 33.1561 15.6268 31.4209 20.6611 31.4209Z" fill="black"/>
<path d="M14.5423 29.246C14.6097 29.6673 14.5334 30.0367 14.3147 30.356C14.0659 30.7221 13.5651 30.9645 12.8123 31.0851C12.7552 31.0941 12.6725 31.1062 12.5648 31.121C12.4551 31.1383 12.3737 31.1518 12.3211 31.1601C11.4766 31.2948 10.972 31.3576 10.8065 31.3486C10.7379 31.3454 10.6995 31.3153 10.6898 31.2582C10.6507 31.0133 10.6058 30.6407 10.5552 30.1393C10.5045 29.6385 10.4596 29.264 10.4205 29.0171C10.3782 28.7516 10.2852 28.2553 10.1409 27.5275C10.1044 27.3409 10.0467 27.0614 9.96845 26.6895L9.95755 26.642C9.94857 26.599 9.97999 26.567 10.0531 26.5458C10.1262 26.5247 10.3904 26.4778 10.8457 26.4054C11.5754 26.2887 12.0024 26.2233 12.1268 26.2079C12.693 26.1386 13.1227 26.1643 13.4163 26.2836C13.8056 26.4445 14.0415 26.7831 14.1243 27.3005C14.1461 27.4358 14.1275 27.5852 14.0691 27.7494C14.0268 27.8667 13.9659 27.9867 13.887 28.1091C13.8171 28.2162 13.7818 28.2669 13.7806 28.2598C13.7831 28.2759 13.8171 28.2964 13.8819 28.3214C14.0569 28.3874 14.2057 28.5125 14.3288 28.6971C14.4397 28.8626 14.5109 29.046 14.543 29.2473L14.5423 29.246ZM12.7584 27.5493C12.727 27.3525 12.6078 27.2377 12.4006 27.205C12.2852 27.1883 12.1018 27.1999 11.8505 27.2403C11.6036 27.2794 11.483 27.3179 11.4888 27.3544C11.4959 27.398 11.5023 27.4641 11.508 27.5538C11.5138 27.643 11.5209 27.7096 11.5273 27.7532C11.5638 27.9822 11.6036 28.1072 11.6472 28.1284C11.6754 28.145 11.8222 28.1322 12.0877 28.0899C12.5795 28.0117 12.8033 27.8315 12.7584 27.55V27.5493ZM13.1675 29.4519C13.1348 29.246 13.0265 29.1204 12.8431 29.0742C12.7257 29.046 12.5436 29.0517 12.2968 29.0909C12.0018 29.1377 11.8434 29.1742 11.8216 29.1999C11.7998 29.2255 11.8094 29.3679 11.8511 29.6263C11.8941 29.8962 11.9325 30.0431 11.9672 30.0668C12.0011 30.0905 12.1685 30.079 12.468 30.0309C12.7148 29.9918 12.886 29.9443 12.9803 29.8892C13.1368 29.7962 13.199 29.65 13.1675 29.4512V29.4519Z" fill="white"/>
<path d="M19.7587 27.9109C19.8094 28.6323 19.6215 29.2523 19.1957 29.7724C18.7609 30.3001 18.1845 30.5887 17.4657 30.6393C16.7513 30.6893 16.1409 30.4816 15.6343 30.0154C15.138 29.5601 14.8642 28.974 14.8142 28.2578C14.7635 27.539 14.9527 26.9183 15.3804 26.3957C15.8164 25.8609 16.3922 25.5685 17.1059 25.5185C17.8151 25.4684 18.4249 25.6781 18.9334 26.1462C19.433 26.6085 19.7074 27.1966 19.7574 27.9102L19.7587 27.9109ZM18.4448 27.9962C18.4205 27.6493 18.2948 27.362 18.0671 27.1344C17.8299 26.8958 17.54 26.7881 17.1976 26.8118C16.8719 26.8349 16.6045 26.9856 16.3967 27.2652C16.1947 27.5351 16.1056 27.8346 16.1287 28.1655C16.1537 28.5188 16.2768 28.8067 16.4993 29.0279C16.734 29.26 17.0258 29.3639 17.3746 29.3395C17.7004 29.3165 17.9684 29.1664 18.1794 28.8894C18.3788 28.6246 18.4673 28.327 18.4442 27.9962H18.4448Z" fill="white"/>
<path d="M25.2452 28.1207C25.2131 28.8427 24.9554 29.4378 24.4732 29.9059C23.9813 30.3804 23.3754 30.601 22.6553 30.5689C21.9403 30.5368 21.3574 30.2605 20.9079 29.7392C20.4668 29.23 20.2622 28.617 20.2943 27.8995C20.3263 27.1794 20.5848 26.5849 21.0695 26.1149C21.5639 25.634 22.1692 25.4089 22.8842 25.441C23.5947 25.473 24.1763 25.7507 24.6283 26.2739C25.0714 26.7901 25.2773 27.4057 25.2452 28.1207ZM23.93 28.0546C23.9454 27.7077 23.8531 27.4076 23.6537 27.155C23.4453 26.8908 23.1695 26.751 22.8271 26.7356C22.5007 26.7209 22.218 26.8408 21.9794 27.0941C21.7479 27.339 21.6248 27.6269 21.6101 27.9578C21.594 28.3118 21.6838 28.6119 21.8794 28.8568C22.0859 29.114 22.3642 29.2505 22.7136 29.2666C23.04 29.2813 23.3234 29.1627 23.5645 28.9113C23.7935 28.6709 23.9153 28.3855 23.93 28.0546Z" fill="white"/>
<path d="M30.6706 31.2531C30.6597 31.3242 30.6212 31.3544 30.5552 31.3448L29.3387 31.1627C29.2721 31.1524 29.2451 31.1075 29.2573 31.0274C29.2919 30.7959 29.3528 30.4503 29.4388 29.9899C29.5253 29.5294 29.5856 29.1838 29.6202 28.9523C29.6305 28.8857 29.6254 28.8491 29.6055 28.8414C29.5779 28.8517 29.3714 29.1825 28.9861 29.8347C28.7597 30.2181 28.534 30.5997 28.3083 30.9806C28.2775 31.0299 28.2442 31.0562 28.2083 31.0607C28.1967 31.0607 28.1505 31.0556 28.0704 31.0434C27.9511 31.0254 27.8838 30.9921 27.8678 30.9427C27.7818 30.6721 27.6741 30.281 27.5446 29.7699C27.4054 29.2287 27.299 28.8369 27.2252 28.5939C27.2227 28.5817 27.2137 28.5676 27.2002 28.5516C27.181 28.5695 27.1682 28.6016 27.1611 28.6478C27.1278 28.8722 27.0829 29.2101 27.0271 29.6609C26.9713 30.1117 26.9264 30.4496 26.8931 30.674C26.8809 30.7542 26.8431 30.7895 26.779 30.7798L25.6312 30.608C25.5856 30.6009 25.5587 30.5894 25.5504 30.5727C25.542 30.5561 25.5407 30.5298 25.5465 30.4932C25.5837 30.2438 25.6523 29.8699 25.7511 29.373C25.8498 28.876 25.9184 28.5022 25.9556 28.2528C25.9954 27.9873 26.0589 27.4871 26.1454 26.7523C26.1717 26.5618 26.2038 26.2771 26.2416 25.8988L26.2467 25.8398C26.2512 25.7936 26.3032 25.7783 26.4013 25.793C26.5269 25.8116 26.7168 25.836 26.97 25.8661C27.2233 25.8956 27.4131 25.92 27.5388 25.9392C27.5638 25.9431 27.592 25.9963 27.6235 26.0995L28.2974 28.4528C28.3461 28.6125 28.3949 28.6958 28.4429 28.7029C28.468 28.7067 28.5346 28.6285 28.643 28.4695C28.9463 28.0232 29.3977 27.3493 29.9966 26.4477C30.0492 26.3643 30.098 26.3259 30.1441 26.3329C30.2108 26.3425 30.3102 26.3611 30.4436 26.3881C30.577 26.415 30.6776 26.4336 30.7462 26.4439C30.8033 26.4522 30.8918 26.4599 31.0117 26.4663C31.1316 26.4727 31.2201 26.4798 31.2772 26.4887C31.3458 26.499 31.3759 26.5317 31.3682 26.5868C31.3278 26.8574 31.2573 27.2595 31.1573 27.7943C31.0572 28.3284 30.9873 28.7311 30.9463 29.0017C30.9091 29.2512 30.8629 29.6276 30.8091 30.1303C30.7552 30.633 30.709 31.0081 30.6725 31.2556L30.6706 31.2531Z" fill="white"/>
<path d="M30.6798 23.0296C30.5497 23.0379 30.4246 23.0514 30.3066 23.0687C30.8401 23.0783 31.2351 23.1893 31.246 23.3496C31.2569 23.5099 30.8786 23.6702 30.3509 23.7484C30.4702 23.7503 30.5958 23.7484 30.726 23.7394C31.4391 23.6933 32.0072 23.4977 31.9944 23.3015C31.9815 23.1053 31.3935 22.9841 30.6805 23.0296H30.6798Z" fill="#FED80F"/>
<path d="M37.014 7.72831C36.8857 7.79821 36.7639 7.87003 36.6504 7.94056C37.1909 7.68535 37.6244 7.57185 37.686 7.68471C37.7475 7.79757 37.4186 8.10151 36.9114 8.41892C37.0319 8.36185 37.1582 8.29772 37.2865 8.22783C37.9906 7.84309 38.4997 7.41924 38.424 7.28138C38.3484 7.14351 37.7168 7.34358 37.0133 7.72831H37.014Z" fill="#FED80F"/>
<path d="M6.33896 4.59236C6.37358 4.66674 6.40821 4.73792 6.44283 4.80461C6.31459 4.49425 6.25111 4.25507 6.29728 4.23327C6.34344 4.21147 6.48516 4.41538 6.63841 4.71355C6.60955 4.6443 6.57813 4.57184 6.54351 4.49682C6.35434 4.08835 6.15492 3.778 6.09849 3.80429C6.04207 3.83058 6.14979 4.18326 6.33896 4.59172V4.59236Z" fill="#FED80F"/>
<path d="M32.1073 3.17785C32.0643 3.24839 32.0252 3.31828 31.9912 3.38625C32.1913 3.11245 32.3926 2.94765 32.4798 3.00023C32.567 3.05281 32.5125 3.30802 32.3606 3.61132C32.4054 3.55041 32.4497 3.48372 32.4927 3.41318C32.7293 3.02588 32.8344 2.6591 32.728 2.59433C32.6215 2.52957 32.3439 2.78991 32.1073 3.17785Z" fill="#F9BD00"/>
<path d="M32.7876 20.7015L32.7601 20.5957C32.7498 20.556 32.7088 20.5316 32.669 20.5425L32.4984 20.5867L32.4542 20.4162C32.4439 20.3764 32.4029 20.3521 32.3631 20.363L32.2573 20.3905C32.2176 20.4008 32.1932 20.4418 32.2041 20.4816L32.2484 20.6522L32.0778 20.6964C32.038 20.7067 32.0137 20.7477 32.0246 20.7875L32.0522 20.8933C32.0624 20.933 32.1034 20.9574 32.1432 20.9465L32.3138 20.9022L32.358 21.0728C32.3683 21.1126 32.4093 21.1369 32.4491 21.126L32.5549 21.0984C32.5946 21.0882 32.619 21.0471 32.6081 21.0074L32.5639 20.8368L32.7344 20.7926C32.7742 20.7823 32.7985 20.7413 32.7876 20.7015Z" fill="url(#paint4_linear_260_7340)"/>
<path d="M2.3936 9.15953L2.36603 9.05373C2.35577 9.01398 2.31473 8.98961 2.27497 9.00051L2.1044 9.04476L2.06016 8.87419C2.0499 8.83443 2.00886 8.81006 1.9691 8.82096L1.8633 8.84854C1.82355 8.8588 1.79918 8.89984 1.81008 8.93959L1.85432 9.11016L1.68376 9.15441C1.644 9.16466 1.61963 9.2057 1.63054 9.24546L1.65811 9.35126C1.66837 9.39102 1.70941 9.41539 1.74916 9.40448L1.91973 9.36024L1.96397 9.53081C1.97423 9.57056 2.01527 9.59493 2.05503 9.58403L2.16083 9.55646C2.20059 9.5462 2.22496 9.50516 2.21405 9.4654L2.16981 9.29483L2.34038 9.25059C2.38013 9.24033 2.4045 9.19929 2.3936 9.15953Z" fill="#F9BD00"/>
<path d="M31.683 22.0652L31.6856 22.0191C31.6869 22.0017 31.6747 21.9876 31.6593 21.9876H31.5926L31.5971 21.9133C31.5984 21.8959 31.5862 21.8818 31.5708 21.8818H31.5291C31.5137 21.8818 31.5003 21.8966 31.499 21.9139L31.4945 21.9889H31.4278C31.4124 21.9896 31.399 22.0037 31.3977 22.0216L31.3951 22.0678C31.3938 22.0851 31.406 22.0992 31.4214 22.0992H31.4881L31.4836 22.1736C31.4823 22.1909 31.4945 22.205 31.5099 22.205H31.5516C31.567 22.205 31.5804 22.1903 31.5817 22.173L31.5862 22.0979H31.6529C31.6683 22.0973 31.6817 22.0832 31.683 22.0652Z" fill="#FBFFF1"/>
<path d="M38.5439 11.8055L38.5464 11.7593C38.5477 11.742 38.5355 11.7279 38.5201 11.7279H38.4534L38.4579 11.6535C38.4592 11.6362 38.447 11.6221 38.4317 11.6221H38.39C38.3746 11.6221 38.3611 11.6368 38.3598 11.6541L38.3553 11.7292H38.2887C38.2733 11.7298 38.2598 11.7439 38.2585 11.7619L38.256 11.808C38.2547 11.8253 38.2669 11.8394 38.2822 11.8394H38.3489L38.3444 11.9138C38.3432 11.9311 38.3553 11.9453 38.3707 11.9453H38.4124C38.4278 11.9453 38.4413 11.9305 38.4425 11.9132L38.447 11.8382H38.5137C38.5291 11.8375 38.5426 11.8234 38.5439 11.8055Z" fill="#CC0000"/>
<path d="M35.2147 6.69107L35.2448 6.63015C35.2564 6.60707 35.2468 6.57885 35.2237 6.56795L35.1249 6.51922L35.1737 6.42047C35.1852 6.39739 35.1756 6.36917 35.1525 6.35827L35.0916 6.32813C35.0685 6.31659 35.0403 6.32621 35.0294 6.34929L34.9806 6.44804L34.8819 6.39931C34.8588 6.38777 34.8306 6.39739 34.8197 6.42047L34.7896 6.48139C34.778 6.50447 34.7876 6.53269 34.8107 6.54359L34.9095 6.59232L34.8607 6.69107C34.8492 6.71415 34.8588 6.74237 34.8819 6.75327L34.9428 6.78341C34.9659 6.79495 34.9941 6.78533 35.005 6.76225L35.0537 6.6635L35.1525 6.71223C35.1756 6.72377 35.2038 6.71415 35.2147 6.69107Z" fill="url(#paint5_linear_260_7340)"/>
<path d="M8.10063 3.06774L8.07306 2.96193C8.0628 2.92218 8.02176 2.89781 7.982 2.90871L7.81144 2.95296L7.76719 2.78239C7.75693 2.74264 7.71589 2.71827 7.67614 2.72917L7.57033 2.75674C7.53058 2.767 7.50621 2.80804 7.51711 2.8478L7.56136 3.01836L7.39079 3.06261C7.35103 3.07287 7.32667 3.11391 7.33757 3.15366L7.36514 3.25947C7.3754 3.29922 7.41644 3.32359 7.45619 3.31269L7.62676 3.26844L7.67101 3.43901C7.68127 3.47877 7.7223 3.50313 7.76206 3.49223L7.86786 3.46466C7.90762 3.4544 7.93199 3.41336 7.92109 3.37361L7.87684 3.20304L8.04741 3.15879C8.08716 3.14853 8.11153 3.10749 8.10063 3.06774Z" fill="url(#paint6_linear_260_7340)"/>
<path d="M30.7178 21.3188L30.7358 21.2579C30.7429 21.2348 30.7294 21.2105 30.7063 21.2034L30.6076 21.1746L30.6364 21.0758C30.6435 21.0527 30.63 21.0284 30.6069 21.0213L30.546 21.0033C30.5229 20.9963 30.4985 21.0098 30.4915 21.0328L30.4626 21.1316L30.3639 21.1027C30.3408 21.0957 30.3164 21.1091 30.3094 21.1322L30.2914 21.1931C30.2844 21.2162 30.2978 21.2406 30.3209 21.2477L30.4197 21.2765L30.3908 21.3753C30.3838 21.3983 30.3972 21.4227 30.4203 21.4298L30.4812 21.4477C30.5043 21.4548 30.5287 21.4413 30.5357 21.4182L30.5646 21.3195L30.6633 21.3483C30.6864 21.3554 30.7108 21.3419 30.7178 21.3188Z" fill="#CC0000"/>
<path d="M12.1567 22.383L12.2074 22.3439C12.2266 22.3291 12.2298 22.3015 12.2151 22.2829L12.1522 22.2015L12.2337 22.1387C12.2529 22.1239 12.2561 22.0963 12.2414 22.0778L12.2023 22.0271C12.1875 22.0079 12.1599 22.0047 12.1413 22.0194L12.0599 22.0822L11.9971 22.0008C11.9823 21.9816 11.9547 21.9784 11.9362 21.9931L11.8855 22.0322C11.8663 22.047 11.8631 22.0745 11.8778 22.0931L11.9406 22.1746L11.8592 22.2374C11.84 22.2522 11.8368 22.2797 11.8515 22.2983L11.8906 22.349C11.9054 22.3682 11.9329 22.3714 11.9515 22.3567L12.033 22.2938L12.0958 22.3753C12.1106 22.3945 12.1381 22.3977 12.1567 22.383Z" fill="#F9BD00"/>
<path d="M10.019 23.8197L10.0498 23.7165C10.0614 23.6774 10.0389 23.6363 9.99979 23.6248L9.83307 23.5754L9.88245 23.4087C9.89399 23.3696 9.87155 23.3286 9.83243 23.317L9.72919 23.2862C9.69008 23.2747 9.64904 23.2971 9.6375 23.3362L9.58812 23.503L9.4214 23.4536C9.38229 23.4421 9.34125 23.4645 9.32971 23.5036L9.29893 23.6068C9.28739 23.646 9.30983 23.687 9.34895 23.6985L9.51566 23.7479L9.46629 23.9146C9.45475 23.9538 9.47719 23.9948 9.51631 24.0063L9.61954 24.0371C9.65866 24.0487 9.6997 24.0262 9.71124 23.9871L9.76061 23.8204L9.92733 23.8698C9.96645 23.8813 10.0075 23.8589 10.019 23.8197Z" fill="#FBFFF1"/>
<path d="M3.1437 14.3968L3.16294 14.3308C3.17 14.3058 3.15589 14.2795 3.13088 14.2724L3.02444 14.241L3.05586 14.1346C3.06291 14.1096 3.0488 14.0833 3.02379 14.0762L2.95775 14.057C2.93274 14.0499 2.90645 14.064 2.8994 14.0891L2.86798 14.1955L2.76153 14.1641C2.73652 14.157 2.71023 14.1711 2.70318 14.1961L2.68394 14.2622C2.67689 14.2872 2.691 14.3135 2.716 14.3205L2.82245 14.352L2.79103 14.4584C2.78397 14.4834 2.79808 14.5097 2.82309 14.5167L2.88914 14.536C2.91414 14.543 2.94043 14.5289 2.94749 14.5039L2.97891 14.3975L3.08535 14.4289C3.11036 14.436 3.13665 14.4218 3.1437 14.3968Z" fill="#F9BD00"/>
<path d="M34.8398 5.40412C35.3131 5.1207 35.8293 4.71608 36.3262 4.21977C36.8232 3.72282 37.2278 3.20663 37.5106 2.7334C37.0373 3.01682 36.5211 3.42144 36.0242 3.91775C35.5272 4.4147 35.1226 4.93089 34.8398 5.40412Z" fill="url(#paint7_linear_260_7340)"/>
<path d="M5.57795 5.40412C5.29452 4.93089 4.88991 4.4147 4.3936 3.91775C3.89664 3.4208 3.38045 3.01618 2.90723 2.7334C3.19065 3.20663 3.59527 3.72282 4.09158 4.21977C4.58789 4.71672 5.10472 5.12134 5.57795 5.40412Z" fill="url(#paint8_linear_260_7340)"/>
<path d="M4.24214 12.1235C3.73108 12.1748 3.11934 12.28 2.46978 12.4371C1.82021 12.5942 1.22836 12.7795 0.75 12.968C1.26106 12.9167 1.87279 12.8116 2.52236 12.6545C3.17193 12.4974 3.76378 12.3121 4.24214 12.1235Z" fill="url(#paint9_linear_260_7340)"/>
<path d="M40.5677 10.2494C40.0393 10.2449 39.4013 10.2827 38.719 10.3686C38.0368 10.4539 37.409 10.5745 36.8979 10.7098C37.4263 10.7143 38.0643 10.6764 38.7466 10.5905C39.4289 10.5046 40.0566 10.3847 40.5677 10.2494Z" fill="url(#paint10_linear_260_7340)"/>
<defs>
<linearGradient id="paint0_linear_260_7340" x1="22.346" y1="14.4925" x2="38.1844" y2="14.4925" gradientUnits="userSpaceOnUse">
<stop stop-color="#FB5338"/>
<stop offset="1" stop-color="#D7021D"/>
</linearGradient>
<linearGradient id="paint1_linear_260_7340" x1="3.10904" y1="15.1337" x2="19.268" y2="15.1337" gradientUnits="userSpaceOnUse">
<stop stop-color="#FB5338"/>
<stop offset="1" stop-color="#D7021D"/>
</linearGradient>
<linearGradient id="paint2_linear_260_7340" x1="2.47796" y1="6.50997" x2="3.28728" y2="6.00581" gradientUnits="userSpaceOnUse">
<stop stop-color="#FB5338"/>
<stop offset="1" stop-color="#D7021D"/>
</linearGradient>
<linearGradient id="paint3_linear_260_7340" x1="33.0237" y1="4.21469" x2="33.9056" y2="4.57875" gradientUnits="userSpaceOnUse">
<stop stop-color="#FB5338"/>
<stop offset="1" stop-color="#D7021D"/>
</linearGradient>
<linearGradient id="paint4_linear_260_7340" x1="32.0207" y1="20.7445" x2="32.7902" y2="20.7445" gradientUnits="userSpaceOnUse">
<stop stop-color="#FB5338"/>
<stop offset="1" stop-color="#D7021D"/>
</linearGradient>
<linearGradient id="paint5_linear_260_7340" x1="34.8364" y1="6.39933" x2="35.1989" y2="6.71239" gradientUnits="userSpaceOnUse">
<stop stop-color="#FB5338"/>
<stop offset="1" stop-color="#D7021D"/>
</linearGradient>
<linearGradient id="paint6_linear_260_7340" x1="7.33372" y1="3.1107" x2="8.10319" y2="3.1107" gradientUnits="userSpaceOnUse">
<stop stop-color="#FB5338"/>
<stop offset="1" stop-color="#D7021D"/>
</linearGradient>
<linearGradient id="paint7_linear_260_7340" x1="35.9071" y1="4.03578" x2="36.2091" y2="4.33775" gradientUnits="userSpaceOnUse">
<stop stop-color="#FB5338"/>
<stop offset="1" stop-color="#D7021D"/>
</linearGradient>
<linearGradient id="paint8_linear_260_7340" x1="3.90051" y1="4.02787" x2="4.20203" y2="3.72634" gradientUnits="userSpaceOnUse">
<stop stop-color="#FB5338"/>
<stop offset="1" stop-color="#D7021D"/>
</linearGradient>
<linearGradient id="paint9_linear_260_7340" x1="3.1206" y1="12.5683" x2="3.06842" y2="12.3524" gradientUnits="userSpaceOnUse">
<stop stop-color="#FB5338"/>
<stop offset="1" stop-color="#D7021D"/>
</linearGradient>
<linearGradient id="paint10_linear_260_7340" x1="38.4919" y1="10.6205" x2="38.4643" y2="10.4005" gradientUnits="userSpaceOnUse">
<stop stop-color="#FB5338"/>
<stop offset="1" stop-color="#D7021D"/>
</linearGradient>
</defs>
</svg>
