<svg id="Capa_1" data-name="Capa 1" xmlns="http://www.w3.org/2000/svg" viewBox="0 0 113 40"><defs><style>.cls-1{fill:#fff;}</style></defs><title>DFZ-Logo-113x40</title><path class="cls-1" d="M14.92,17.29v-6.9h2.59V28.85H15v-2a5,5,0,0,1-4.42,2.28,5.62,5.62,0,0,1-4.45-1.89A7.49,7.49,0,0,1,4.5,22.16a7.48,7.48,0,0,1,1.66-5.11,5.62,5.62,0,0,1,4.45-1.89,5,5,0,0,1,4.32,2.13M8.25,25.71a3.58,3.58,0,0,0,2.84,1.22A3.49,3.49,0,0,0,14,25.66a5.26,5.26,0,0,0,1-3.5,5.43,5.43,0,0,0-1-3.52,3.53,3.53,0,0,0-2.87-1.24,3.49,3.49,0,0,0-2.84,1.3,5.5,5.5,0,0,0-1.06,3.58,5.06,5.06,0,0,0,1.06,3.45"/><path class="cls-1" d="M23,13.58H20.41V10.81H23Zm0,15.27H20.43V15.47H23V28.85Z"/><path class="cls-1" d="M35.82,17.37V15.47H38.3V28.36a5.66,5.66,0,0,1-1.66,4.32,6.58,6.58,0,0,1-4.71,1.57A6.61,6.61,0,0,1,27.79,33,4.51,4.51,0,0,1,26,29.78h2.59q.31,2.36,3.34,2.36,3.75,0,3.75-3.73V26.93A5,5,0,0,1,31.42,29,5.62,5.62,0,0,1,27,27.11a7.35,7.35,0,0,1-1.68-5,7.35,7.35,0,0,1,1.68-5,5.59,5.59,0,0,1,4.42-1.89,5,5,0,0,1,4.42,2.2m-3.93,9.41a3.52,3.52,0,0,0,2.86-1.26,5.21,5.21,0,0,0,1-3.44,5.21,5.21,0,0,0-1-3.44,3.85,3.85,0,0,0-5.7,0A5.17,5.17,0,0,0,28,22.08,5.16,5.16,0,0,0,29,25.52a3.53,3.53,0,0,0,2.84,1.26"/><path class="cls-1" d="M43.84,13.58H41.2V10.81h2.64Zm0,15.27H41.22V15.47h2.59Z"/><path class="cls-1" d="M47.77,15.47V14.26q0-3.94,4-3.94c.26,0,.75,0,1.47.08v2.1H52.09a1.54,1.54,0,0,0-1.73,1.76v1.22h2.79V17.6H50.36V28.85H47.77V17.6H45.62V15.47Zm7.32-4.67h2.64v2.77H55.09Zm2.61,18H55.11V15.47H57.7Z"/><path class="cls-1" d="M72.11,26.85h.72v2a9.51,9.51,0,0,1-1.27.08,3.08,3.08,0,0,1-1.85-.45A2,2,0,0,1,69,27a4.75,4.75,0,0,1-4.34,2.13,5.33,5.33,0,0,1-3.48-1,3.56,3.56,0,0,1-1.28-2.92q0-3.63,5-4.15l2-.21a2.9,2.9,0,0,0,1.51-.53,1.42,1.42,0,0,0,.48-1.15,1.68,1.68,0,0,0-.63-1.46,3.72,3.72,0,0,0-2.11-.45,3.86,3.86,0,0,0-2.3.53,2.47,2.47,0,0,0-.8,1.88H60.44q.28-4.48,5.66-4.48t5.28,3.94v7.08c0,.45.24.68.73.68M65,27.14a4.06,4.06,0,0,0,2.74-.93,3.3,3.3,0,0,0,1.09-2.64v-1.4a3.13,3.13,0,0,1-1.66.54l-1.86.21a4.25,4.25,0,0,0-2.15.71,2.05,2.05,0,0,0,0,3,2.79,2.79,0,0,0,1.85.53"/><path class="cls-1" d="M81.21,15.16a4.68,4.68,0,0,1,3.44,1.23,4.69,4.69,0,0,1,1.24,3.49v9H83.31v-8.6a2.48,2.48,0,0,0-2.82-2.8,3.29,3.29,0,0,0-2.33,1,3.84,3.84,0,0,0-1,2.88v7.54H74.54V15.47H77v2a4.77,4.77,0,0,1,4.19-2.31"/><path class="cls-1" d="M94.07,26.72h5v2.13H88V27l5.74-7.34q.93-1.22,1.71-2.13-.62,0-2.79,0H88.22V15.47h10.5v1.81L93,24.62q-.93,1.22-1.71,2.13c.41,0,1.35,0,2.8,0"/><polygon class="cls-1" points="89.74 10.23 89.74 11.42 101.53 13.8 104.63 10.11 104.15 9.63 101.11 12.2 93.61 10.65 107.43 6.83 103.5 20.89 102.07 14.94 101.35 15.05 102.9 24.47 103.97 24.47 108.5 6.24 108.02 5.76 89.74 10.23"/></svg>