<svg id="Capa_1" data-name="Capa 1" xmlns="http://www.w3.org/2000/svg" xmlns:xlink="http://www.w3.org/1999/xlink" viewBox="0 0 1080 1080"><defs><style>.cls-1{fill:#ee5e60;}.cls-2{fill:url(#Degradado_sin_nombre_11);}</style><linearGradient id="Degradado_sin_nombre_11" x1="820" y1="498" x2="977.5" y2="498" gradientUnits="userSpaceOnUse"><stop offset="0" stop-color="#f86059"/><stop offset="0.33" stop-color="#f87662"/><stop offset="0.73" stop-color="#f9896b"/><stop offset="1" stop-color="#f9906e"/></linearGradient></defs><title>DFZ-Logo-NewVersion</title><path class="cls-1" d="M192,516.26V458.38h21.72V613.29H192.9V596.75q-12.59,19.14-37.13,19.15-23.44,0-37.34-15.88t-13.88-42.87q0-27,13.89-42.87t37.35-15.87q23.65,0,36.25,17.84M136,587q8.9,10.23,23.88,10.22,15.4,0,24.09-10.67,8.68-10.23,8.68-29.37,0-18.93-8.68-29.59-8.68-10.44-24.09-10.43-15,0-23.88,10.88t-8.89,30q0,18.74,8.89,28.94"/><path class="cls-1" d="M260.22,485.15H238.07V461.87h22.15ZM260,613.29h-21.7V501H260V613.29Z"/><path class="cls-1" d="M367.45,516.9V501h20.84V609.15q0,23.06-13.89,36.23t-39.51,13.16q-21.94,0-34.85-10t-14.66-27.42H307.1q2.6,19.79,28,19.8,31.47,0,31.48-31.32v-12.4q-12.8,17.4-36,17.4-23.44,0-37.34-15.87-14.12-16.11-14.11-42.21t14.11-42.2q13.9-15.87,37.13-15.88,24.51,0,37.11,18.49m-33,79q15.19,0,24-10.56t8.79-28.83q0-18.28-8.79-28.83t-24-10.56q-15,0-23.88,10.67t-8.9,28.73q0,18.28,8.9,28.83t23.88,10.56"/><path class="cls-1" d="M434.76,485.15H412.61V461.87h22.15Zm-.23,128.13H412.81V501h21.72Z"/><path class="cls-1" d="M467.75,501V490.81q0-33.08,33.65-33.08c2.18,0,6.29.21,12.38.65V476H504q-14.55,0-14.54,14.8V501h23.45v17.84H489.47V613.3H467.75V518.87h-18V501Zm61.44-39.16h22.15v23.29H529.19Zm21.93,151.42H529.4V501h21.72Z"/><path class="cls-1" d="M672,596.53h6.07v16.75a79.83,79.83,0,0,1-10.65.66q-10.42,0-15.52-3.81t-6.18-12.08q-11.28,17.85-36.47,17.84-18.46,0-29.2-8.81t-10.75-24.48q0-30.44,42.11-34.81l16.5-1.73q8.68-1.07,12.7-4.46t4-9.68q0-8.48-5.32-12.3t-17.7-3.81c-9,0-15.41,1.48-19.33,4.46s-6.16,8.23-6.73,15.77H574.12q2.38-37.64,47.54-37.64,44.28,0,44.29,33.08v59.39c0,3.79,2,5.67,6.09,5.67m-59.49,2.4q13.91,0,23-7.84t9.13-22.19V557.16q-4.13,3.49-13.9,4.56l-15.63,1.73q-12.59,1.53-18,6t-5.43,12.51q0,8.05,5.32,12.51c3.52,3,8.7,4.48,15.5,4.48"/><path class="cls-1" d="M748.45,498.42q18.46,0,28.88,10.33T787.76,538v75.28H766V541.07q0-23.49-23.67-23.5-10.85,0-19.54,8.27-8.68,8.48-8.68,24.14v63.31h-21.7V501H713.3v16.75q12.78-19.36,35.15-19.37"/><path class="cls-1" d="M856.36,595.44H898v17.85h-92.5V598.05l48.2-61.57q7.83-10.23,14.32-17.84-5.19.22-23.45.21H807.28V501h88.13v15.23l-48.2,61.57q-7.83,10.23-14.32,17.84c3.48-.13,11.31-.22,23.47-.22"/><polygon class="cls-2" points="820 457 820 467 919 487 945 456 941 452 915.5 473.5 852.5 460.5 968.5 428.5 935.5 546.5 923.5 496.5 917.5 497.5 930.5 576.5 939.5 576.5 977.5 423.5 973.5 419.5 820 457"/></svg>